<?xml version="1.0" encoding="UTF-8"?>
<svg width="24" height="24" viewBox="0 0 24 24" version="1.1" xmlns="http://www.w3.org/2000/svg" xmlns:xlink="http://www.w3.org/1999/xlink">
    <path
      fill="#ffffff"
      fillRule="evenodd"
      d="M17.125 15.063L24 21.936 21.937 24l-6.812-6.875v-1.063l-.438-.375c-1.666 1.417-3.604 2.126-5.812 2.126-2.458 0-4.552-.865-6.281-2.594C.864 13.489 0 11.396 0 8.938c0-2.459.865-4.563 2.594-6.313C4.323.875 6.396 0 8.813 0c2.458 0 4.552.875 6.28 2.625 1.73 1.75 2.595 3.854 2.595 6.313 0 2.208-.709 4.145-2.125 5.812l.437.313h1.125zm-12.65-2c1.177 1.138 2.599 1.706 4.264 1.706s3.086-.578 4.264-1.736c1.177-1.157 1.766-2.568 1.766-4.233 0-1.665-.589-3.087-1.766-4.264-1.178-1.178-2.6-1.767-4.264-1.767-1.665 0-3.076.59-4.234 1.767C3.348 5.713 2.77 7.135 2.77 8.8s.569 3.086 1.706 4.264z"
    />
  </svg>
