<svg width="14" height="14" viewBox="0 0 14 14" fill="none" xmlns="http://www.w3.org/2000/svg">
<path fill-rule="evenodd" clip-rule="evenodd" d="M13.8792 8.85096L12.302 7.70673C12.3244 7.57211 12.3356 7.33654 12.3356 7C12.3356 6.91026 12.33 6.78686 12.3188 6.62981C12.3076 6.47276 12.302 6.36058 12.302 6.29327L13.8121 5.14904C13.9687 5.03686 13.9911 4.87981 13.8792 4.67788L12.4362 2.28846C12.3244 2.08654 12.179 2.03045 12 2.12019L10.2215 2.82692C9.75168 2.49038 9.349 2.25481 9.01342 2.12019L8.77852 0.269231C8.73378 0.0897427 8.61074 0 8.4094 0H5.55705C5.3557 0 5.23266 0.0897427 5.18792 0.269231L4.91946 2.12019C4.67338 2.20994 4.2707 2.44551 3.71141 2.82692L1.89933 2.12019C1.72036 2.05288 1.58613 2.10897 1.49664 2.28846L0.0536917 4.67788C-0.0357942 4.85737 -0.0134231 5.01442 0.120806 5.14904L1.66443 6.29327C1.66443 6.36058 1.65884 6.47276 1.64765 6.62981C1.63647 6.78686 1.63087 6.91026 1.63087 7C1.63087 7.08974 1.63647 7.21314 1.64765 7.37019C1.65884 7.52724 1.66443 7.63942 1.66443 7.70673L0.154363 8.85096C-0.00223753 8.96314 -0.0246087 9.12019 0.0872487 9.32211L1.5302 11.7115C1.61969 11.9135 1.75391 11.9696 1.93289 11.8798L3.74497 11.1731C4.21477 11.5096 4.61745 11.7452 4.95302 11.8798L5.22148 13.7308C5.26622 13.9103 5.38926 14 5.5906 14H8.44295C8.6443 14 8.76734 13.9103 8.81208 13.7308L9.08054 11.8798C9.32662 11.7901 9.7293 11.5545 10.2886 11.1731L12.1007 11.8798C12.2796 11.9471 12.4139 11.891 12.5034 11.7115L13.9463 9.32211C14.0358 9.14263 14.0134 8.98558 13.8792 8.85096ZM6.96644 9.45673C6.27293 9.45673 5.68009 9.22116 5.18792 8.75C4.71812 8.27884 4.48322 7.69552 4.48322 7C4.48322 6.30448 4.72371 5.72116 5.2047 5.25C5.68568 4.77884 6.27293 4.54327 6.96644 4.54327C7.65996 4.54327 8.25279 4.77884 8.74497 5.25C9.23714 5.72116 9.48322 6.30448 9.48322 7C9.48322 7.69552 9.23714 8.27884 8.74497 8.75C8.25279 9.22116 7.65996 9.45673 6.96644 9.45673Z" fill="#00325B"/>
</svg>
