<svg xmlns="http://www.w3.org/2000/svg" fill="none" viewBox="0 0 159 48"><path fill="#FE1A58" fill-rule="evenodd" d="M14.2234 32.3483c-7.65331 0-13.827404-6.1938-13.827404-13.8715V.798828H28.0508V18.4768c0 7.6777-6.2384 13.8715-13.8274 13.8715zM2.71128 3.12149V18.4768c0 6.3873 5.14508 11.5488 11.51212 11.5488 6.367 0 11.5121-5.1615 11.5121-11.5488V3.12149H2.71128z" clip-rule="evenodd"/><path fill="#FE1A58" d="M15.3812 1.96021h-2.3153V30.9934h2.3153V1.96021z"/><path fill="#FE1A58" fill-rule="evenodd" d="M13.3843 11.5667L24.1166.860726 25.763 2.50308 15.0307 13.209l-1.6464-1.6423zM13.3501 19.4541L26.1289 6.70679l1.6464 1.64235L14.9965 21.0965l-1.6464-1.6424zM13.377 27.1201l12.7787-12.7473 1.6464 1.6424-12.7787 12.7473-1.6464-1.6424z" clip-rule="evenodd"/><path fill="#333" fill-rule="evenodd" d="M55.3036 19.0026v-3.1628h-7.1128V2.12549H44.584V19.0026h10.7196zM68.8985 19.0026V6.78125h-3.2032v8.27415c-.5549.7084-1.5386 1.3916-2.7745 1.3916-1.3621 0-2.2449-.5566-2.2449-2.2519V6.78125h-3.2032v8.67895c0 2.3785 1.2611 3.8461 3.9347 3.8461 1.9926 0 3.4555-.9362 4.2879-1.8472v1.5435h3.2032zM83.6793 19.0026V2.12549h-3.2285v6.22456c-.9585-1.26516-2.3205-1.87243-3.7582-1.87243-3.1024 0-5.3977 2.42909-5.3977 6.40168 0 4.0991 2.3457 6.427 5.3977 6.427 1.4881 0 2.7997-.6579 3.7582-1.8724v1.5687h3.2285zm-5.9778-2.5556c-1.8413 0-3.1024-1.4422-3.1024-3.5677 0-2.1002 1.2611-3.54243 3.1024-3.54243 1.0593 0 2.2196.58197 2.7493 1.39163v4.3269c-.5297.8097-1.69 1.3916-2.7493 1.3916zM86.8569 2.12549h3.2033V19.0026h-3.2033V2.12549zM98.8883 19.3062c4.0357 0 6.4567-2.9605 6.4567-6.427 0-3.4665-2.421-6.40166-6.4567-6.40166-4.0104 0-6.4318 2.93516-6.4318 6.40166 0 3.4665 2.4214 6.427 6.4318 6.427zm0-2.8592c-1.9926 0-3.1024-1.6447-3.1024-3.5678 0-1.8977 1.1098-3.54241 3.1024-3.54241 2.0177 0 3.1277 1.64471 3.1277 3.54241 0 1.9231-1.11 3.5678-3.1277 3.5678zM121.866 19.0026l3.708-12.22135h-3.355l-2.27 8.22355-2.673-8.22355h-2.851l-2.673 8.22355-2.27-8.22355h-3.33l3.708 12.22135h3.43l2.573-8.3247 2.573 8.3247h3.43zM52.3274 42.5006c5.1202 0 7.592-2.8845 7.592-7.0595V25.3198h-3.6573v10.02c0 2.3532-1.3368 3.9726-3.9347 3.9726-2.598 0-3.96-1.6194-3.96-3.9726v-10.02h-3.632v10.1213c0 4.175 2.4718 7.0595 7.592 7.0595zM74.624 42.1971v-8.6283c0-2.3785-1.2864-3.8967-3.9852-3.8967-1.9674 0-3.4808.9615-4.2627 1.8724v-1.5687h-3.2032v12.2213h3.2032v-8.2488c.5549-.7084 1.5134-1.4169 2.7745-1.4169 1.3621 0 2.2449.5819 2.2449 2.2772v7.3885h3.2285zM79.3658 28.6599c1.0594 0 1.9169-.8603 1.9169-1.9231 0-1.0627-.8575-1.8977-1.9169-1.8977-1.0341 0-1.8917.835-1.8917 1.8977 0 1.0628.8576 1.9231 1.8917 1.9231zm1.6143 13.5371V29.9756h-3.2033V42.197h3.2033zM90.7667 42.197l4.8932-12.2214h-3.4303l-3.2033 8.5018-3.178-8.5018H82.418l4.8932 12.2214h3.4555zM102.823 42.5008c1.892 0 3.809-.582 5.019-1.6953l-1.437-2.1255c-.782.7591-2.195 1.1893-3.229 1.1893-2.068 0-3.2789-1.2399-3.506-2.7328h9.055v-.7591c0-3.9725-2.447-6.7053-6.104-6.7053-3.6824 0-6.3056 2.8593-6.3056 6.4017 0 3.922 2.7997 6.427 6.5076 6.427zm2.825-7.5909h-6.0032c.1261-1.2146.9842-2.6063 2.9762-2.6063 2.119 0 2.926 1.4423 3.027 2.6063zM114.249 42.1971v-8.0716c.53-.7844 1.942-1.3917 3.002-1.3917.378 0 .655.0253.882.0759v-3.1376c-1.513 0-3.001.8856-3.884 1.9484v-1.6447h-3.203v12.2213h3.203zM124.515 42.5008c3.379 0 5.296-1.6447 5.296-3.8967 0-4.9341-7.239-3.4159-7.239-5.2124 0-.6832.757-1.1893 1.917-1.1893 1.488 0 2.876.6579 3.607 1.417l1.286-2.2773c-1.21-.9615-2.85-1.67-4.893-1.67-3.228 0-4.994 1.7965-4.994 3.8461 0 4.8076 7.214 3.1629 7.214 5.1618 0 .7591-.656 1.2905-2.043 1.2905-1.514 0-3.304-.835-4.212-1.6953l-1.388 2.3278c1.287 1.1893 3.33 1.8978 5.449 1.8978zM133.746 28.6599c1.06 0 1.917-.8603 1.917-1.9231 0-1.0627-.857-1.8977-1.917-1.8977-1.034 0-1.892.835-1.892 1.8977 0 1.0628.858 1.9231 1.892 1.9231zm1.614 13.5371V29.9756h-3.203V42.197h3.203zM142.624 42.5008c1.337 0 2.195-.3543 2.674-.7844l-.681-2.4544c-.177.2024-.631.3795-1.11.3795-.706 0-1.11-.5819-1.11-1.3663v-5.4908h2.472v-2.8087h-2.472v-3.34h-3.203v3.34h-2.018v2.8087h2.018v6.3511c0 2.2013 1.186 3.3653 3.43 3.3653zM146.66 46.9539c.378.1266 1.211.2025 1.564.2025 2.093-.0506 3.708-.6579 4.616-2.9605l5.725-14.2203h-3.43l-3.203 8.5018-3.178-8.5018h-3.431l4.944 12.3732-.454 1.0627c-.303.6579-.858.8856-1.69.8856-.303 0-.732-.0759-1.009-.2024l-.454 2.8592z" clip-rule="evenodd"/></svg>