<svg width="18" height="18" viewBox="0 0 18 18" fill="none" xmlns="http://www.w3.org/2000/svg">
<path fill-rule="evenodd" clip-rule="evenodd" d="M18 16.4531L12.8438 11.2969H12L11.6719 11.0625C12.7344 9.81249 13.2656 8.35938 13.2656 6.70312C13.2656 4.85937 12.6172 3.28126 11.3203 1.96875C10.0234 0.656243 8.45313 0 6.60938 0C4.79687 0 3.24219 0.656243 1.94531 1.96875C0.648431 3.28126 0 4.85937 0 6.70312C0 8.54688 0.648431 10.1172 1.94531 11.4141C3.24219 12.7109 4.81249 13.3594 6.65625 13.3594C8.31251 13.3594 9.76562 12.8281 11.0156 11.7656L11.3438 12.0469V12.8438L16.4531 18L18 16.4531ZM6.65625 11.2969C5.37499 11.2969 4.28125 10.8594 3.375 9.98438C2.5 9.07812 2.0625 7.98438 2.0625 6.70312C2.0625 5.42187 2.50781 4.32813 3.39844 3.42188C4.28907 2.51562 5.37499 2.0625 6.65625 2.0625C7.93751 2.0625 9.03125 2.51562 9.9375 3.42188C10.8438 4.32813 11.2969 5.42187 11.2969 6.70312C11.2969 7.98438 10.8438 9.07031 9.9375 9.96094C9.03125 10.8516 7.93751 11.2969 6.65625 11.2969Z" fill="#00325B"/>
</svg>
